# This file uses centimeters as units for non-parametric coordinates.

mtllib Tree03.mtl
g default
v 0.730913 0.000000 -0.908408
v -0.152241 0.000000 -0.908408
v 0.457734 1.910608 -1.220750
v -0.016084 2.678307 -1.220750
v 0.457734 1.910608 -0.483175
v -0.016084 2.678307 -0.483175
v 0.730913 0.000000 -0.025269
v -0.152241 0.000000 -0.025269
v 0.517954 2.743591 -1.259063
v -0.016084 3.302596 -0.956997
v -0.016084 3.302596 -0.483175
v 0.457734 2.534896 -0.483175
v 0.220825 4.633075 0.076245
v -1.471597 3.774003 0.175851
v 1.931895 3.718198 0.917314
v 0.283770 4.843040 -2.271379
v 3.376084 3.991399 0.389934
v 3.399653 4.374005 1.790508
v 3.151348 2.992273 1.419401
v 1.721792 2.753637 1.508654
v 1.105664 3.702479 0.339188
v 1.133364 4.261263 1.852789
v 3.182446 7.101302 0.568619
v 2.740869 5.225645 0.816196
v 2.339106 2.989957 0.215728
v 2.085410 4.370257 -0.157068
v 1.046733 6.047872 3.050413
v 2.377251 3.609025 2.481918
v -1.309731 7.707991 0.460635
v 0.658667 7.821874 -1.405477
v 0.033472 5.969146 -1.413501
v -1.662231 5.112799 1.032385
v -0.476089 3.996046 0.237257
v -0.747056 4.593012 2.505535
v -1.760156 6.645388 -1.054614
v -2.498130 6.554247 1.068234
v 2.791216 4.421586 -1.046678
v 2.084194 4.747241 -3.020940
v 1.915063 6.336604 -2.572467
v 0.004321 4.326595 -3.050413
v 2.908652 6.395315 -0.630472
v -0.803496 4.136076 -1.369684
v 1.309600 3.143050 -1.867570
v -1.941987 3.419083 0.728833
v -1.754517 3.138325 -0.952390
v -2.722646 4.278338 -1.791207
v -1.709985 5.844711 -2.059160
v -3.505840 5.263659 -0.650369
v -3.025972 4.732613 0.929070
v -3.284487 3.591021 -0.324093
v -0.184541 8.809316 1.641193
v 2.946504 8.492825 0.632897
v 1.384043 9.164738 -0.822180
v 3.505840 7.344603 -1.325739
vt 0.321581 0.009535
vt 0.364963 0.009535
vt 0.364963 0.052917
vt 0.321581 0.009535
vt 0.364963 0.009535
vt 0.364963 0.052917
vt 0.321581 0.009535
vt 0.364963 0.009535
vt 0.364963 0.052917
vt 0.321581 0.009535
vt 0.364963 0.009535
vt 0.364963 0.052917
vt 0.321581 0.009535
vt 0.364963 0.009535
vt 0.364963 0.052917
vt 0.321581 0.009535
vt 0.364963 0.009535
vt 0.364963 0.052917
vt 0.321581 0.009535
vt 0.364963 0.009535
vt 0.364963 0.052917
vt 0.321581 0.009535
vt 0.364963 0.009535
vt 0.364963 0.052917
vt 0.321581 0.009535
vt 0.364963 0.009535
vt 0.364963 0.052917
vt 0.321581 0.009535
vt 0.364963 0.009535
vt 0.364963 0.052917
vt 0.321581 0.009535
vt 0.364963 0.009535
vt 0.364963 0.052917
vt 0.321581 0.009535
vt 0.364963 0.009535
vt 0.364963 0.052917
vt 0.321581 0.009535
vt 0.364963 0.009535
vt 0.364963 0.052917
vt 0.321581 0.009535
vt 0.364963 0.009535
vt 0.364963 0.052917
vt 0.321581 0.009535
vt 0.364963 0.009535
vt 0.364963 0.052917
vt 0.321581 0.009535
vt 0.364963 0.009535
vt 0.364963 0.052917
vt 0.321581 0.009535
vt 0.364963 0.009535
vt 0.364963 0.052917
vt 0.321581 0.009535
vt 0.364963 0.009535
vt 0.364963 0.052917
vt 0.321581 0.009535
vt 0.364963 0.009535
vt 0.364963 0.052917
vt 0.321581 0.009535
vt 0.364963 0.009535
vt 0.364963 0.052917
vt 0.321581 0.009535
vt 0.364963 0.009535
vt 0.364963 0.052917
vt 0.321581 0.009535
vt 0.364963 0.009535
vt 0.364963 0.052917
vt 0.321581 0.009535
vt 0.364963 0.009535
vt 0.364963 0.052917
vt 0.321581 0.009535
vt 0.364963 0.009535
vt 0.364963 0.052917
vt 0.350502 0.023995
vt 0.194650 0.574175
vt 0.238032 0.574175
vt 0.238032 0.617557
vt 0.194650 0.574175
vt 0.238032 0.574175
vt 0.238032 0.617557
vt 0.194650 0.574175
vt 0.238032 0.574175
vt 0.238032 0.617557
vt 0.194650 0.574175
vt 0.238032 0.574175
vt 0.238032 0.617557
vt 0.194650 0.574175
vt 0.238032 0.574175
vt 0.238032 0.617557
vt 0.216341 0.595866
vt 0.238032 0.574175
vt 0.238032 0.617557
vt 0.194650 0.574175
vt 0.238032 0.574175
vt 0.238032 0.617557
vt 0.194650 0.574175
vt 0.238032 0.574175
vt 0.238032 0.617557
vt 0.194650 0.574175
vt 0.238032 0.574175
vt 0.238032 0.617557
vt 0.194650 0.574175
vt 0.238032 0.574175
vt 0.238032 0.617557
vt 0.194650 0.574175
vt 0.238032 0.574175
vt 0.238032 0.617557
vt 0.194650 0.574175
vt 0.238032 0.574175
vt 0.194650 0.574175
vt 0.238032 0.574175
vt 0.238032 0.617557
vt 0.194650 0.574175
vt 0.238032 0.574175
vt 0.238032 0.617557
vt 0.194650 0.574175
vt 0.238032 0.574175
vt 0.238032 0.617557
vt 0.194650 0.574175
vt 0.238032 0.574175
vt 0.238032 0.617557
vt 0.194650 0.574175
vt 0.238032 0.574175
vt 0.238032 0.617557
vt 0.194650 0.574175
vt 0.238032 0.574175
vt 0.238032 0.617557
vt 0.194650 0.574175
vt 0.238032 0.574175
vt 0.238032 0.617557
vt 0.194650 0.574175
vt 0.238032 0.574175
vt 0.238032 0.617557
vt 0.194650 0.574175
vt 0.238032 0.574175
vt 0.238032 0.617557
vt 0.194650 0.574175
vt 0.238032 0.574175
vt 0.238032 0.617557
vt 0.194650 0.574175
vt 0.238032 0.574175
vt 0.238032 0.617557
vt 0.194650 0.574175
vt 0.238032 0.574175
vt 0.238032 0.617557
vt 0.194650 0.574175
vt 0.238032 0.574175
vt 0.238032 0.617557
vt 0.194650 0.574175
vt 0.238032 0.574175
vt 0.238032 0.617557
vt 0.194650 0.574175
vt 0.238032 0.574175
vt 0.238032 0.617557
vt 0.194650 0.574175
vt 0.238032 0.574175
vt 0.238032 0.617557
vt 0.216341 0.574175
vt 0.238032 0.574175
vt 0.238032 0.617557
vt 0.194650 0.574175
vt 0.238032 0.574175
vt 0.238032 0.617557
vt 0.194650 0.574175
vt 0.238032 0.574175
vt 0.238032 0.617557
vt 0.194650 0.574175
vt 0.238032 0.574175
vt 0.238032 0.617557
vt 0.194650 0.574175
vt 0.238032 0.574175
vt 0.238032 0.617557
vt 0.194650 0.574175
vt 0.238032 0.574175
vt 0.238032 0.617557
vt 0.238032 0.574175
vt 0.238032 0.617557
vt 0.194650 0.574175
vt 0.238032 0.574175
vt 0.238032 0.617557
vt 0.194650 0.574175
vt 0.238032 0.574175
vt 0.238032 0.617557
vt 0.194650 0.574175
vt 0.238032 0.574175
vt 0.238032 0.617557
vt 0.194650 0.574175
vt 0.238032 0.574175
vt 0.238032 0.617557
vt 0.194650 0.574175
vt 0.238032 0.574175
vt 0.194650 0.574175
vt 0.238032 0.574175
vt 0.238032 0.617557
vt 0.194650 0.574175
vt 0.238032 0.574175
vt 0.238032 0.617557
vt 0.194650 0.574175
vt 0.238032 0.574175
vt 0.238032 0.617557
vt 0.194650 0.574175
vt 0.238032 0.574175
vt 0.238032 0.617557
vt 0.194650 0.574175
vt 0.238032 0.574175
vt 0.238032 0.617557
vt 0.194650 0.574175
vt 0.238032 0.574175
vt 0.238032 0.617557
vt 0.194650 0.574175
vt 0.238032 0.574175
vt 0.238032 0.617557
vt 0.194650 0.574175
vt 0.238032 0.574175
vt 0.238032 0.617557
vt 0.194650 0.574175
vt 0.238032 0.574175
vt 0.238032 0.617557
vt 0.194650 0.574175
vt 0.238032 0.574175
vt 0.238032 0.617557
vt 0.194650 0.574175
vt 0.238032 0.574175
vt 0.238032 0.617557
vt 0.194650 0.574175
vt 0.238032 0.574175
vt 0.238032 0.617557
vt 0.194650 0.574175
vt 0.238032 0.574175
vt 0.238032 0.617557
vt 0.194650 0.574175
vt 0.238032 0.617557
vt 0.194650 0.574175
vt 0.238032 0.574175
vt 0.238032 0.617557
vt 0.194650 0.574175
vn 0.000000 -0.161336 -0.986900
vn -0.024604 -0.153632 -0.987822
vn -0.133655 -0.111679 -0.984715
vn -0.067450 -0.280613 -0.957448
vn 0.239405 0.052428 0.969503
vn 0.035529 0.222177 0.974359
vn 0.011564 0.138213 0.990335
vn 0.000000 0.233065 0.972461
vn -0.998710 0.050771 0.000000
vn -0.998710 0.050771 0.000000
vn -0.998710 0.050771 0.000000
vn -0.998710 0.050771 0.000000
vn 0.989933 0.141541 0.000000
vn 0.989933 0.141541 0.000000
vn 0.944083 -0.329707 0.000000
vn 0.964278 -0.157379 -0.213074
vn -0.024418 -0.349846 -0.936489
vn -0.550584 -0.036040 0.834002
vn -0.062257 -0.162464 0.984748
vn 0.165279 0.586396 -0.792983
vn 0.165279 0.586396 -0.792983
vn 0.165279 0.586396 -0.792983
vn -0.984514 0.175306 0.000000
vn -0.984514 0.175306 0.000000
vn -0.984514 0.175306 0.000000
vn -0.449094 -0.277178 0.849404
vn 0.991336 0.085302 0.099886
vn 0.991336 0.085302 0.099886
vn 0.991336 0.085302 0.099886
vn -0.601426 -0.798929 0.000000
vn -0.601426 -0.798929 0.000000
vn -0.601426 -0.798929 0.000000
vn 0.412469 0.000000 0.910972
vn 0.308120 0.951347 0.000000
vn 0.308120 0.951348 0.000000
vn 0.308120 0.951348 0.000000
vn -0.508730 0.335053 -0.793053
vn -0.508730 0.335053 -0.793053
vn -0.508730 0.335053 -0.793053
vn 0.884532 -0.320833 -0.338627
vn 0.852537 -0.085351 -0.515652
vn -0.695441 0.705630 0.135822
vn -0.695441 0.705631 0.135822
vn -0.695441 0.705630 0.135822
vn -0.688759 0.000000 0.724990
vn -0.011365 -0.435328 -0.900200
vn -0.986558 0.063597 -0.150531
vn -0.986558 0.063597 -0.150531
vn -0.986558 0.063597 -0.150531
vn 0.717873 0.365711 0.592380
vn 0.717873 0.365711 0.592380
vn 0.717873 0.365711 0.592380
vn 0.828921 0.001274 -0.559364
vn 0.086512 -0.740905 -0.666014
vn 0.210325 0.009003 -0.977590
vn 0.666189 -0.722197 0.186074
vn -0.465012 -0.842470 0.272044
vn -0.710280 -0.583329 -0.393991
vn 0.707181 0.705944 -0.039224
vn 0.818097 0.320867 0.477243
vn 0.515312 0.082285 0.853043
vn 0.523174 -0.168079 0.835487
vn -0.577276 -0.433419 0.692026
vn -0.356168 -0.688682 0.631555
vn -0.071478 -0.557771 0.826911
vn 0.639569 0.738592 0.213151
vn -0.572766 0.746241 -0.339208
vn -0.548000 0.752676 -0.364932
vn -0.735755 0.637572 -0.228401
vn -0.355143 0.590422 -0.724759
vn -0.399212 0.138638 -0.906316
vn -0.253191 0.472848 -0.843984
vn -0.173051 0.062652 -0.982918
vn -0.794910 -0.599508 0.093315
vn -0.853818 -0.490817 -0.173473
vn -0.826440 -0.471606 -0.307546
vn -0.222792 -0.850619 0.476246
vn -0.515937 0.291055 0.805665
vn -0.354505 0.531017 0.769641
vn -0.449496 0.231042 0.862887
vn -0.508848 0.435824 0.742382
vn -0.333207 -0.920842 0.202542
vn 0.286754 0.676811 0.678011
vn 0.496391 0.364984 0.787644
vn 0.615856 0.650699 0.444199
vn 0.339599 0.938072 0.068513
vn 0.586417 0.760644 -0.278451
vn 0.892427 -0.035344 0.449805
vn 0.891848 -0.452167 -0.012350
vn 0.972259 0.153232 -0.176730
vn 0.734749 -0.361228 -0.574159
vn 0.759330 0.510161 -0.403922
vn 0.583533 0.745909 -0.321106
vn -0.411793 0.409471 -0.814101
vn 0.542446 -0.782713 -0.305144
vn 0.136513 -0.620900 -0.771912
vn -0.040430 0.267358 -0.962749
vn -0.176918 0.608190 -0.773824
vn 0.536356 -0.843397 0.031696
vn 0.117085 -0.930665 -0.346633
vn 0.666676 -0.718446 -0.198438
vn -0.433963 -0.252481 -0.864829
vn 0.171905 -0.377292 -0.910000
vn 0.185932 -0.281255 -0.941448
vn -0.310365 0.735759 -0.601940
vn -0.189342 0.684827 -0.703677
vn 0.033046 -0.744131 0.667216
vn -0.609216 -0.313855 0.728252
vn -0.770209 -0.637390 0.022635
vn -0.912395 0.130152 -0.388066
vn -0.377908 0.775148 0.506292
vn -0.403908 0.773622 0.488229
vn -0.506207 0.759223 0.409066
vn -0.259292 0.772603 0.579528
vn 0.184022 -0.202768 0.961780
vn 0.388054 -0.224307 0.893924
vn -0.281957 -0.934792 0.216017
vn -0.186389 -0.979983 0.069947
vn -0.553043 -0.796712 -0.243705
vn -0.192732 -0.919374 0.342937
vn 0.774770 -0.099998 0.624285
vn 0.718076 -0.433186 0.544718
vn 0.699345 -0.482909 0.526987
vn 0.555581 -0.787370 0.267166
vn -0.523754 -0.845696 -0.102368
vn -0.606006 -0.703630 -0.371028
vn -0.606006 -0.703630 -0.371028
vn 0.891146 -0.258973 -0.372548
vn 0.891146 -0.258973 -0.372548
vn 0.891146 -0.258973 -0.372548
vn -0.733037 0.020116 0.679892
vn 0.981990 -0.110170 0.153490
vn -0.070762 -0.560041 -0.825437
vn -0.070762 -0.560041 -0.825437
vn -0.070762 -0.560041 -0.825438
vn -0.323310 0.611035 -0.722570
vn 0.085972 0.357500 -0.929948
vn -0.545700 0.805435 -0.231271
s 1
g SFMC_geo12397 Main_grp
usemtl lambert2SG
f 1/1/1 2/2/2 3/3/3
f 3/4/3 2/5/2 4/6/4
s 2
f 6/7/5 8/8/6 5/9/7
f 5/10/7 8/11/6 7/12/8
s 3
f 8/13/9 6/14/10 2/15/11
f 2/16/11 6/17/10 4/18/12
s 4
f 7/19/13 1/20/14 5/21/15
f 5/22/15 1/23/14 3/24/16
s 1
f 3/25/3 4/26/4 9/27/17
s 2
f 5/31/7 12/32/18 6/33/5
f 6/34/5 12/35/18 11/36/19
s off
f 9/37/20 10/38/21 13/39/22
f 10/40/23 11/41/24 13/42/25
s 2
f 12/43/18 13/44/26 11/45/19
s off
f 9/46/27 13/47/28 12/48/29
f 4/49/30 6/50/31 14/51/32
s 2
f 6/52/5 11/53/19 14/54/33
s off
f 10/55/34 14/56/35 11/57/36
f 4/58/37 14/59/38 10/60/39
s 4
f 5/61/15 3/62/16 15/63/40
f 3/64/16 9/65/41 15/66/40
s off
f 12/67/42 15/68/43 9/69/44
s 2
f 5/70/7 15/71/45 12/72/18
s 1
f 9/28/17 4/29/4 16/73/46
s off
f 4/29/47 10/30/48 16/73/49
f 10/30/50 9/28/51 16/73/52
s 5
f 17/74/53 25/75/54 26/76/55
f 17/77/53 19/78/56 25/79/54
f 19/80/56 20/81/57 25/82/54
f 20/83/57 21/84/58 25/85/54
f 21/86/58 26/87/55 25/88/54
f 24/89/59 17/90/53 26/91/55
f 18/92/60 27/93/61 28/94/62
f 18/95/60 28/96/62 19/97/56
f 28/98/62 20/99/57 19/100/56
f 28/101/63 22/102/64 20/103/57
f 28/104/63 27/105/65 22/106/64
f 27/107/66 18/108/60 24/89/59
f 17/109/53 24/110/59 18/111/60
f 17/112/53 18/113/60 19/114/56
f 20/115/57 22/116/64 21/117/58
s 8
f 29/118/67 35/119/68 36/120/69
f 29/121/67 30/122/70 35/123/68
s 9
f 30/124/71 31/125/72 35/126/73
s 5
f 32/127/74 36/128/75 35/129/76
f 34/130/77 36/131/75 32/132/74
s 11
f 27/133/78 36/134/79 34/135/80
f 27/136/78 29/137/81 36/138/79
s 5
f 22/139/64 34/140/77 33/141/82
f 22/142/64 27/143/65 34/144/77
s 12
f 51/145/83 27/146/84 52/147/85
f 51/148/83 52/149/85 53/150/86
s 5
f 33/151/82 34/152/77 32/153/74
s 12
f 52/154/85 54/155/87 53/156/86
f 23/157/88 37/158/89 41/159/90
f 37/160/89 38/161/91 41/162/90
f 38/163/91 39/164/92 41/165/90
f 39/166/92 30/167/93 41/168/90
s 9
f 31/169/72 30/170/71 39/171/94
s 12
f 43/172/95 38/173/91 37/174/89
f 43/172/95 40/175/96 38/176/91
s 9
f 38/177/97 40/178/98 39/179/94
f 40/180/98 31/181/72 39/182/94
f 33/183/99 45/184/100 42/185/101
f 45/186/100 46/187/102 42/188/103
f 46/189/102 47/190/104 42/185/103
f 35/191/105 31/192/72 47/193/106
f 44/194/107 49/195/108 50/196/109
f 44/197/107 50/198/109 45/199/100
f 50/200/109 46/201/102 45/202/100
f 50/203/109 48/204/110 46/205/102
f 50/206/109 49/207/108 48/208/110
s 17
f 49/209/111 35/210/112 48/211/113
f 49/212/111 32/213/114 35/214/112
s 9
f 49/215/108 44/216/107 32/217/115
f 33/218/116 32/219/115 44/220/107
f 33/221/99 44/222/107 45/223/100
f 46/224/102 48/225/110 47/226/106
f 48/227/110 35/228/105 47/229/106
s 18
f 21/117/117 33/183/118 42/185/119
f 21/117/117 22/116/120 33/183/118
s 12
f 27/107/84 24/89/121 23/157/88
f 23/157/122 26/91/123 37/158/89
f 43/172/95 37/174/89 21/117/124
s 18
f 43/172/125 21/117/117 42/185/119
s 12
f 26/87/123 21/117/124 37/158/89
s 18
f 40/175/126 43/172/125 42/185/119 47/190/127
s 9
f 40/175/98 47/193/106 31/181/72
s off
f 24/89/128 26/91/129 23/157/130
s 11
f 29/230/81 27/146/78 51/145/131
s 12
f 27/146/84 23/231/88 52/147/85
f 23/232/88 41/233/90 54/155/132 52/154/85
s off
f 30/234/133 54/155/134 41/233/135
s 8
f 53/156/136 54/155/137 30/234/70
f 53/156/136 29/235/67 51/148/138
f 53/156/136 30/234/70 29/235/67
