# This file uses centimeters as units for non-parametric coordinates.

mtllib Fence01.mtl
g default
v 1.151938 -0.000872 -0.056411
v 1.161881 0.000000 0.063040
v 1.270331 0.000685 -0.066277
v 1.280273 0.001556 0.053196
v 1.143171 0.918041 -0.063940
v 1.154484 0.917847 0.071909
v 1.277743 0.917695 -0.075125
v 1.289055 0.917501 0.060725
v 1.138781 0.227181 -0.061084
v 1.148210 0.227472 0.052236
v 1.260538 0.227990 0.042883
v 1.251105 0.227699 -0.070430
v -1.287557 0.785248 0.033259
v -1.289055 0.604980 0.033267
v -1.287557 0.785248 -0.036475
v -1.289055 0.604980 -0.036475
v -0.022701 0.775552 0.037009
v -0.024899 0.592379 0.036702
v -0.022705 0.775571 -0.040232
v -0.024906 0.592628 -0.040540
v -0.965585 0.793077 0.035273
v -0.967310 0.615793 0.035273
v -0.967310 0.615802 -0.038503
v -0.965585 0.793087 -0.038489
v -1.267947 0.000276 0.057986
v -1.147716 -0.000275 0.057993
v -1.267947 0.000401 -0.061201
v -1.147716 -0.000150 -0.061201
v -1.264530 0.920982 0.055474
v -1.146508 0.906081 0.061062
v -1.264351 0.920942 -0.056213
v -1.130299 0.939725 -0.055994
v -1.256422 0.456881 0.060037
v -1.137151 0.456716 0.060483
v -1.137019 0.456749 -0.057781
v -1.256287 0.456912 -0.058220
v -1.230948 0.253947 -0.036541
v -1.233878 0.450954 -0.043857
v -1.230948 0.257010 0.040642
v -1.233878 0.454019 0.033325
v -0.008547 0.274257 -0.038562
v -0.008181 0.466600 -0.042217
v -0.008558 0.275797 0.038650
v -0.008192 0.468140 0.035002
v -0.920790 0.248544 -0.034666
v -0.924229 0.434487 -0.041455
v -0.924232 0.437307 0.032263
v -0.920793 0.251364 0.039053
v 0.059502 -0.000203 0.062117
v 0.067375 -0.000068 -0.057517
v -0.059092 0.000240 0.054309
v -0.051218 0.000375 -0.065325
v 0.082775 0.901445 0.075930
v 0.070712 0.917388 -0.060337
v -0.061893 0.916967 0.057385
v -0.059476 0.931672 -0.075930
v 0.071129 0.682507 0.065046
v 0.079270 0.682412 -0.051790
v -0.036599 0.682154 -0.058704
v -0.044740 0.682249 0.058125
v 1.235947 0.425131 0.037009
v 1.229022 0.237490 0.037009
v 1.235944 0.425131 -0.040225
v 1.229022 0.237490 -0.040225
v 0.360725 0.468298 0.035222
v 0.355045 0.291123 0.035339
v 0.355052 0.291011 -0.038430
v 0.360732 0.468188 -0.038547
v -0.021603 0.772850 -0.039602
v -0.021592 0.772368 0.037646
v 1.247523 0.575050 -0.041023
v 1.249856 0.750461 -0.039771
v 1.247523 0.574547 0.036226
v 1.249856 0.749956 0.037478
v 0.360037 0.584903 -0.039199
v 0.362596 0.750602 -0.038027
v 0.362604 0.750130 0.035750
v 0.360040 0.584429 0.034570
vt 0.076091 0.706444
vt 0.105206 0.706444
vt 0.076091 0.706444
vt 0.076091 0.706444
vt 0.105206 0.735559
vt 0.105206 0.735559
vt 0.105206 0.706444
vt 0.105206 0.706444
vt 0.076091 0.735559
vt 0.105206 0.706444
vt 0.105206 0.706444
vt 0.105206 0.706444
vt 0.105206 0.706444
vt 0.076091 0.735559
vt 0.105206 0.706444
vt 0.105206 0.706444
vt 0.105206 0.735559
vt 0.105206 0.735559
vt 0.105206 0.735559
vt 0.105206 0.735559
vt 0.076091 0.735559
vt 0.105206 0.706444
vt 0.105206 0.706444
vt 0.105206 0.706444
vt 0.105206 0.706444
vt 0.105206 0.706444
vt 0.076091 0.706444
vt 0.105206 0.706444
vt 0.105206 0.735559
vt 0.105206 0.735559
vt 0.076091 0.735559
vt 0.105206 0.735559
vt 0.076091 0.706444
vt 0.076091 0.735559
vt 0.105206 0.706444
vt 0.076091 0.706444
vt 0.076091 0.735559
vt 0.076091 0.706444
vt 0.076091 0.735559
vt 0.105206 0.735559
vt 0.105206 0.735559
vt 0.076091 0.735559
vt 0.105206 0.706444
vt 0.105206 0.706444
vt 0.105206 0.706444
vt 0.105206 0.706444
vt 0.076091 0.706444
vt 0.076091 0.706444
vt 0.105206 0.735559
vt 0.105206 0.735559
vt 0.105206 0.706444
vt 0.105206 0.706444
vt 0.076091 0.706444
vt 0.105206 0.706444
vt 0.105206 0.706444
vt 0.076091 0.706444
vt 0.076091 0.735559
vt 0.076091 0.706444
vt 0.076091 0.735559
vt 0.105206 0.735559
vt 0.105206 0.706444
vt 0.105206 0.735559
vt 0.105206 0.706444
vt 0.105206 0.706444
vt 0.105206 0.735559
vt 0.105206 0.735559
vt 0.105206 0.706444
vt 0.105206 0.735559
vt 0.076091 0.706444
vt 0.105206 0.735559
vt 0.076091 0.735559
vt 0.105206 0.706444
vt 0.105206 0.706444
vt 0.105206 0.706444
vt 0.105206 0.706444
vt 0.076091 0.706444
vt 0.076091 0.706444
vt 0.076091 0.706444
vt 0.105206 0.706444
vt 0.105206 0.735559
vt 0.105206 0.735559
vt 0.105206 0.706444
vt 0.105206 0.735559
vt 0.076091 0.706444
vt 0.105206 0.706444
vt 0.105206 0.706444
vt 0.105206 0.706444
vt 0.076091 0.706444
vt 0.076091 0.735559
vt 0.076091 0.735559
vt 0.076091 0.706444
vt 0.105206 0.706444
vt 0.105206 0.706444
vt 0.076091 0.706444
vt 0.105206 0.706444
vt 0.105206 0.706444
vt 0.105206 0.706444
vt 0.105206 0.706444
vt 0.105206 0.706444
vt 0.076091 0.706444
vt 0.076091 0.706444
vt 0.076091 0.706444
vt 0.076091 0.735559
vt 0.105206 0.735559
vt 0.105206 0.735559
vt 0.076091 0.735559
vt 0.105206 0.706444
vt 0.076091 0.706444
vt 0.105206 0.735559
vt 0.076091 0.735559
vt 0.105206 0.735559
vt 0.105206 0.706444
vt 0.076091 0.735559
vt 0.105206 0.735559
vt 0.076091 0.735559
vt 0.076091 0.706444
vt 0.105206 0.706444
vt 0.105206 0.735559
vt 0.076091 0.735559
vt 0.076091 0.706444
vt 0.105206 0.706444
vt 0.105206 0.735559
vt 0.076091 0.735559
vt 0.076091 0.706444
vt 0.105206 0.735559
vt 0.076091 0.735559
vt 0.105206 0.735559
vt 0.076091 0.735559
vt 0.076091 0.706444
vt 0.076091 0.735559
vt 0.076091 0.706444
vt 0.076091 0.735559
vt 0.076091 0.706444
vt 0.105206 0.706444
vt 0.076091 0.706444
vt 0.105206 0.706444
vt 0.105206 0.735559
vt 0.076091 0.735559
vt 0.076091 0.706444
vt 0.105206 0.706444
vt 0.105206 0.735559
vt 0.076091 0.735559
vt 0.076091 0.706444
vt 0.076091 0.735559
vt 0.076091 0.706444
vt 0.105206 0.735559
vt 0.076091 0.735559
vt 0.105206 0.735559
vt 0.076091 0.735559
vt 0.076091 0.706444
vt 0.076091 0.735559
vt 0.105206 0.706444
vt 0.105206 0.735559
vt 0.076091 0.706444
vt 0.105206 0.706444
vt 0.105206 0.735559
vt 0.076091 0.735559
vt 0.076091 0.706444
vt 0.105206 0.706444
vt 0.105206 0.735559
vt 0.076091 0.735559
vt 0.076091 0.706444
vt 0.076091 0.735559
vt 0.076091 0.706444
vt 0.105206 0.735559
vt 0.076091 0.735559
vt 0.105206 0.735559
vt 0.076091 0.735559
vt 0.076091 0.706444
vt 0.076091 0.735559
vt 0.076091 0.706444
vt 0.105206 0.735559
vt 0.076091 0.735559
vt 0.105206 0.706444
vt 0.105206 0.735559
vt 0.076091 0.706444
vt 0.105206 0.735559
vt 0.076091 0.735559
vt 0.105206 0.735559
vt 0.076091 0.735559
vt 0.076091 0.706444
vt 0.105206 0.735559
vt 0.076091 0.735559
vt 0.105206 0.735559
vt 0.076091 0.735559
vt 0.076091 0.706444
vt 0.076091 0.735559
vt 0.076091 0.706444
vt 0.105206 0.706444
vt 0.076091 0.706444
vt 0.105206 0.735559
vt 0.076091 0.735559
vt 0.105206 0.706444
vt 0.105206 0.735559
vt 0.076091 0.706444
vt 0.105206 0.735559
vt 0.076091 0.735559
vt 0.076091 0.706444
vt 0.076091 0.735559
vt 0.076091 0.706444
vt 0.105206 0.735559
vt 0.076091 0.735559
vt 0.076091 0.706444
vt 0.076091 0.735559
vt 0.076091 0.706444
vt 0.076091 0.735559
vt 0.076091 0.706444
vt 0.105206 0.706444
vt 0.105206 0.735559
vt 0.076091 0.735559
vt 0.076091 0.706444
vt 0.105206 0.706444
vt 0.105206 0.735559
vt 0.076091 0.735559
vt 0.076091 0.706444
vt 0.076091 0.735559
vt 0.076091 0.706444
vt 0.105206 0.735559
vt 0.076091 0.735559
vt 0.105206 0.735559
vt 0.076091 0.735559
vt 0.076091 0.706444
vt 0.076091 0.735559
vt 0.076091 0.706444
vt 0.105206 0.735559
vt 0.076091 0.735559
vt 0.105206 0.706444
vt 0.105206 0.735559
vt 0.076091 0.706444
vt 0.105206 0.735559
vt 0.076091 0.735559
vt 0.105206 0.735559
vt 0.076091 0.735559
vt 0.076091 0.706444
vt 0.105206 0.735559
vt 0.076091 0.735559
vt 0.105206 0.735559
vt 0.076091 0.735559
vt 0.076091 0.706444
vt 0.076091 0.735559
vn 0.000000 1.000000 0.000000
vn 0.000000 1.000000 0.000000
vn 0.000000 1.000000 0.000000
vn 0.000000 1.000000 0.000000
vn -0.996523 -0.007200 0.083002
vn -0.996319 0.021800 0.082902
vn -0.996319 0.021800 0.082902
vn -0.996523 -0.007200 0.083002
vn -0.996523 -0.007200 0.083002
vn -0.996523 -0.007200 0.083002
vn -0.996502 -0.009700 0.083000
vn -0.996502 -0.009700 0.083000
vn 0.082996 0.001300 0.996549
vn 0.082701 0.075401 0.993718
vn 0.082701 0.075401 0.993718
vn 0.082996 0.002100 0.996548
vn 0.082902 -0.045401 0.995523
vn 0.082996 0.001300 0.996549
vn 0.082996 0.002100 0.996548
vn 0.082902 -0.045401 0.995523
vn 0.996493 0.010600 -0.082999
vn 0.996319 0.021800 -0.082902
vn 0.996319 0.021800 -0.082902
vn 0.996493 0.010600 -0.082999
vn 0.996502 -0.009700 -0.083000
vn 0.996493 0.010600 -0.082999
vn 0.996493 0.010600 -0.082999
vn 0.996502 -0.009700 -0.083000
vn -0.082996 0.001400 -0.996549
vn -0.082896 -0.031599 -0.996057
vn -0.082896 -0.031599 -0.996057
vn -0.082996 0.001800 -0.996548
vn -0.082902 0.025801 -0.996224
vn -0.082996 0.001400 -0.996549
vn -0.082996 0.001800 -0.996548
vn -0.082902 0.025801 -0.996224
vn -0.999944 0.010600 -0.000000
vn -0.999966 0.008309 0.000000
vn -0.999944 0.010600 -0.000000
vn -0.999944 0.010600 -0.000000
vn -0.007200 0.000100 0.999974
vn 0.021799 -0.000200 0.999762
vn 0.021799 -0.000200 0.999762
vn -0.007200 0.000100 0.999974
vn -0.007200 0.000100 0.999974
vn -0.007200 0.000100 0.999974
vn -0.009700 0.000100 0.999953
vn -0.009700 0.000100 0.999953
vn -0.010400 -0.999946 -0.000000
vn 0.063704 -0.997969 -0.000000
vn 0.063704 -0.997969 -0.000000
vn -0.009600 -0.999954 -0.000000
vn -0.057198 -0.998363 -0.000000
vn -0.010400 -0.999946 -0.000000
vn -0.009600 -0.999954 -0.000000
vn -0.057198 -0.998363 -0.000000
vn 0.010600 -0.000100 -0.999944
vn 0.021799 -0.000200 -0.999762
vn 0.021799 -0.000200 -0.999762
vn 0.010600 -0.000100 -0.999944
vn -0.009700 0.000100 -0.999953
vn 0.010600 -0.000100 -0.999944
vn 0.010600 -0.000100 -0.999944
vn -0.009700 0.000100 -0.999953
vn 0.013200 0.999913 0.000000
vn -0.019800 0.999804 0.000000
vn -0.019800 0.999804 0.000000
vn 0.013600 0.999908 0.000000
vn 0.037600 0.999293 0.000000
vn 0.013200 0.999913 0.000000
vn 0.013600 0.999908 0.000000
vn 0.037600 0.999293 0.000000
vn 0.000000 1.000000 0.000000
vn 0.000000 1.000000 0.000000
vn 0.000000 1.000000 0.000000
vn 0.000000 1.000000 0.000000
vn 0.000000 0.021799 0.999762
vn 0.000000 0.021799 0.999762
vn 0.000000 -0.005700 0.999984
vn 0.000000 -0.006100 0.999981
vn 0.000000 -0.006100 0.999981
vn 0.000000 -0.005700 0.999984
vn 0.000000 -0.009700 0.999953
vn 0.000000 -0.009700 0.999953
vn 0.999891 -0.014800 0.000000
vn 0.997154 0.075396 0.000000
vn 0.997154 0.075396 0.000000
vn 0.999891 -0.014800 0.000000
vn 0.998969 -0.045399 0.000000
vn 0.999891 -0.014800 0.000000
vn 0.999891 -0.014800 0.000000
vn 0.998969 -0.045399 0.000000
vn -0.000000 -0.006100 -0.999981
vn -0.000000 0.021799 -0.999762
vn -0.000000 0.021799 -0.999762
vn -0.000000 -0.006000 -0.999982
vn -0.000000 -0.009700 -0.999953
vn -0.000000 -0.006100 -0.999981
vn -0.000000 -0.006000 -0.999982
vn -0.000000 -0.009700 -0.999953
vn -0.999996 0.002700 -0.000000
vn -0.999501 -0.031600 -0.000000
vn -0.999501 -0.031600 -0.000000
vn -0.999996 0.002700 -0.000000
vn -0.999667 0.025799 -0.000000
vn -0.999996 0.002700 -0.000000
vn -0.999996 0.002700 -0.000000
vn -0.999667 0.025799 -0.000000
vn -0.007200 -0.041001 -0.999133
vn 0.021801 -0.040701 -0.998934
vn 0.021801 -0.040701 -0.998934
vn -0.007200 -0.041001 -0.999133
vn -0.007200 -0.041001 -0.999133
vn -0.007200 -0.041001 -0.999133
vn -0.009700 -0.041000 -0.999112
vn -0.009700 -0.041000 -0.999112
vn -0.020001 0.999130 -0.036601
vn 0.054158 0.997864 -0.036539
vn 0.054158 0.997864 -0.036539
vn -0.019201 0.999145 -0.036602
vn -0.066660 0.997105 -0.036578
vn -0.020001 0.999130 -0.036601
vn -0.019201 0.999145 -0.036602
vn -0.066660 0.997105 -0.036578
vn 0.010600 0.041000 0.999103
vn 0.021800 0.041101 0.998917
vn 0.021800 0.041101 0.998917
vn 0.010600 0.041000 0.999103
vn -0.009700 0.040801 0.999120
vn 0.010600 0.041000 0.999103
vn 0.010600 0.041000 0.999103
vn -0.009700 0.040801 0.999120
vn 0.022799 -0.999070 0.036599
vn -0.010205 -0.999277 0.036617
vn -0.010205 -0.999277 0.036617
vn 0.023199 -0.999061 0.036599
vn 0.047182 -0.998216 0.036586
vn 0.022799 -0.999070 0.036599
vn 0.023199 -0.999061 0.036599
vn 0.047182 -0.998216 0.036586
vn 0.000000 1.000000 0.000000
vn 0.000000 1.000000 0.000000
vn 0.000000 1.000000 0.000000
vn 0.000000 1.000000 0.000000
vn 0.997601 0.021800 0.065700
vn 0.997601 0.021800 0.065700
vn 0.997813 0.007300 0.065701
vn 0.997813 0.007300 0.065701
vn 0.997792 -0.009700 0.065699
vn 0.997792 -0.009700 0.065699
vn 0.997813 0.007300 0.065701
vn 0.997813 0.007300 0.065701
vn 0.065703 -0.001500 -0.997838
vn 0.065500 0.075400 -0.995000
vn 0.065500 0.075400 -0.995000
vn 0.065702 -0.002000 -0.997837
vn 0.065601 -0.045401 -0.996813
vn 0.065601 -0.045401 -0.996813
vn 0.065703 -0.001500 -0.997838
vn 0.065702 -0.002000 -0.997837
vn -0.997783 -0.010600 -0.065699
vn -0.997601 0.021800 -0.065700
vn -0.997601 0.021800 -0.065700
vn -0.997783 -0.010600 -0.065699
vn -0.997792 -0.009700 -0.065699
vn -0.997792 -0.009700 -0.065699
vn -0.997783 -0.010600 -0.065699
vn -0.997783 -0.010600 -0.065699
vn -0.065703 -0.001500 0.997838
vn -0.065603 -0.031601 0.997345
vn -0.065603 -0.031601 0.997345
vn -0.065702 -0.001800 0.997838
vn -0.065601 0.025800 0.997512
vn -0.065601 0.025800 0.997512
vn -0.065703 -0.001500 0.997838
vn -0.065702 -0.001800 0.997838
vn -0.007200 0.000300 0.999974
vn 0.021799 -0.000800 0.999762
vn 0.021799 -0.000800 0.999762
vn -0.007200 0.000300 0.999974
vn -0.007200 0.000300 0.999974
vn -0.007200 0.000300 0.999974
vn -0.009700 0.000400 0.999953
vn -0.009700 0.000400 0.999953
vn -0.033098 -0.999452 -0.000000
vn 0.041090 -0.999155 -0.000000
vn 0.041090 -0.999155 -0.000000
vn -0.032199 -0.999481 -0.000000
vn -0.079709 -0.996818 -0.000000
vn -0.033098 -0.999452 -0.000000
vn -0.032199 -0.999481 -0.000000
vn -0.079709 -0.996818 -0.000000
vn 0.010600 -0.000400 -0.999944
vn 0.021799 -0.000800 -0.999762
vn 0.021799 -0.000800 -0.999762
vn 0.010600 -0.000400 -0.999944
vn -0.009700 0.000400 -0.999953
vn 0.010600 -0.000400 -0.999944
vn 0.010600 -0.000400 -0.999944
vn -0.009700 0.000400 -0.999953
vn 0.035799 0.999359 0.000000
vn 0.002800 0.999996 0.000000
vn 0.002800 0.999996 0.000000
vn 0.036202 0.999344 0.000000
vn 0.060205 0.998186 0.000000
vn 0.035799 0.999359 0.000000
vn 0.036202 0.999344 0.000000
vn 0.060205 0.998186 0.000000
vn -0.007200 0.006400 -0.999954
vn 0.021801 0.005900 -0.999745
vn 0.021801 0.005900 -0.999745
vn -0.007200 0.006400 -0.999954
vn -0.007200 0.006400 -0.999954
vn -0.007200 0.006400 -0.999954
vn -0.009700 0.006400 -0.999932
vn -0.009700 0.006400 -0.999932
vn 0.015701 0.999850 0.007300
vn 0.089821 0.995931 0.007302
vn 0.089821 0.995931 0.007302
vn 0.016501 0.999837 0.007300
vn -0.030997 0.999493 0.007299
vn 0.015701 0.999850 0.007300
vn 0.016501 0.999837 0.007300
vn -0.030997 0.999493 0.007299
vn 0.010600 -0.006400 0.999923
vn 0.021801 -0.006600 0.999741
vn 0.021801 -0.006600 0.999741
vn 0.010600 -0.006400 0.999923
vn -0.009700 -0.006100 0.999934
vn 0.010600 -0.006400 0.999923
vn 0.010600 -0.006400 0.999923
vn -0.009700 -0.006100 0.999934
vn -0.013000 -0.999889 -0.007300
vn -0.045905 -0.998919 -0.007301
vn -0.045905 -0.998919 -0.007301
vn -0.012600 -0.999894 -0.007300
vn 0.011399 -0.999908 -0.007299
vn -0.013000 -0.999889 -0.007300
vn -0.012600 -0.999894 -0.007300
vn 0.011399 -0.999908 -0.007299
s off
g SFMC_geo23 Main_grp
usemtl lambert2SG
f 7/1/1 5/2/2 6/114/3 8/115/4
f 9/116/5 1/117/6 2/118/7 10/119/8
f 9/120/9 10/121/10 6/122/11 5/123/12
f 10/124/13 2/7/14 4/125/15 11/126/16
f 6/3/17 10/8/18 11/127/19 8/128/20
f 11/129/21 4/11/22 3/18/23 12/130/24
f 8/4/25 11/12/26 12/19/27 7/21/28
f 12/131/29 3/23/30 1/6/31 9/132/32
f 7/27/33 12/22/34 9/5/35 5/9/36
f 14/133/37 13/134/38 15/30/39 16/31/40
f 21/135/41 13/136/42 14/137/43 22/138/44
f 21/139/45 22/140/46 18/141/47 17/142/48
f 22/143/49 14/28/50 16/40/51 23/144/52
f 18/36/53 22/35/54 23/41/55 20/42/56
f 23/145/57 16/44/58 15/146/59 24/147/60
f 20/48/61 23/43/62 24/148/63 19/149/64
f 24/150/65 15/45/66 13/29/67 21/151/68
f 19/47/69 24/46/70 21/32/71 17/37/72
f 31/56/73 29/152/74 30/153/75 32/59/76
f 25/154/77 26/155/78 34/156/79 33/157/80
f 33/158/81 34/159/82 30/160/83 29/161/84
f 34/162/85 26/61/86 28/68/87 35/163/88
f 30/58/89 34/63/90 35/70/91 32/71/92
f 35/164/93 28/72/94 27/165/95 36/166/96
f 32/77/97 35/74/98 36/167/99 31/168/100
f 36/169/101 27/73/102 25/60/103 33/170/104
f 31/76/105 36/75/106 33/62/107 29/57/108
f 45/171/109 37/85/110 38/172/111 46/173/112
f 45/84/113 46/174/114 42/175/115 41/89/116
f 46/176/117 38/86/118 40/177/119 47/178/120
f 42/88/121 46/87/122 47/179/123 44/180/124
f 47/181/125 40/92/126 39/182/127 48/183/128
f 44/94/129 47/93/130 48/184/131 43/185/132
f 48/186/133 39/96/134 37/104/135 45/187/136
f 43/100/137 48/97/138 45/105/139 41/106/140
f 55/188/141 53/189/142 54/109/143 56/110/144
f 49/190/145 50/112/146 58/191/147 57/192/148
f 54/33/149 53/193/150 57/194/151 58/34/152
f 58/195/153 50/25/154 52/196/155 59/197/156
f 56/198/157 54/15/158 58/20/159 59/199/160
f 59/200/161 52/24/162 51/201/163 60/202/164
f 55/203/165 56/16/166 59/17/167 60/204/168
f 60/205/169 51/13/170 49/111/171 57/206/172
f 53/108/173 55/107/174 60/83/175 57/113/176
f 65/207/177 44/208/178 43/209/179 66/210/180
f 65/211/181 66/212/182 62/213/183 61/214/184
f 66/215/185 43/64/186 41/80/187 67/216/188
f 62/78/189 66/67/190 67/81/191 64/14/192
f 67/217/193 41/10/194 42/218/195 68/219/196
f 64/69/197 67/26/198 68/220/199 63/221/200
f 68/222/201 42/82/202 44/65/203 65/223/204
f 63/102/205 68/79/206 65/66/207 61/103/208
f 75/224/209 20/99/210 69/225/211 76/226/212
f 75/101/213 76/227/214 72/228/215 71/90/216
f 76/229/217 69/98/218 70/230/219 77/231/220
f 72/91/221 76/95/222 77/232/223 74/233/224
f 77/234/225 70/55/226 18/235/227 78/236/228
f 74/53/229 77/54/230 78/237/231 73/238/232
f 78/239/233 18/51/234 20/50/235 75/240/236
f 73/38/237 78/52/238 75/49/239 71/39/240
